<svg id="Flat" height="512" viewBox="0 0 512 512" width="512" xmlns="http://www.w3.org/2000/svg"><rect fill="#e9eef2" height="432" rx="32" transform="matrix(-1 0 0 -1 512 544)" width="464" x="24" y="56"/><g fill="#c3c6c7"><path d="m488 88v64h-464v-64a32 32 0 0 1 32-32h400a32 32 0 0 1 32 32z"/><path d="m408 224h32v32h-32z"/><path d="m248 384h32v32h-32z"/><path d="m248 384h32v32h-32z"/><path d="m168 224h32v32h-32z"/><path d="m88 304h32v32h-32z"/><path d="m168 304h32v32h-32z"/><path d="m88 384h32v32h-32z"/><path d="m168 384h32v32h-32z"/></g><rect fill="#7e8589" height="80" rx="16" width="32" x="240" y="24"/><rect fill="#7e8589" height="80" rx="16" width="32" x="112" y="24"/><rect fill="#7e8589" height="80" rx="16" width="32" x="368" y="24"/><path d="m343.554 336-39.554-21.865-39.554 21.865 7.554-46.311-32-32.797 44.223-6.757 19.777-42.135 19.777 42.135 44.223 6.757-32 32.797z" fill="#f7cc38"/><path d="m408 304h32v32h-32z" fill="#c3c6c7"/><path d="m408 384h32v32h-32z" fill="#c3c6c7"/><path d="m328 384h32v32h-32z" fill="#c3c6c7"/></svg>