<svg xmlns="http://www.w3.org/2000/svg" id="icons" width="512" height="512" enable-background="new 0 0 64 64" viewBox="0 0 64 64"><path fill="#e6e9ed" d="m16.998 24.448c-.197 0-.393-.059-.561-.172-.274-.187-.439-.496-.439-.828v-1h-2c-.553 0-1-.447-1-1v-12.996c0-.553.447-1 1-1h14.994c.553 0 1 .447 1 1s-.447 1-1 1h-13.994v10.996h2c.553 0 1 .447 1 1v.523l3.629-1.452c.118-.047.244-.071.371-.071h.001l6.995.012c.552.001.999.449.998 1.002-.001.552-.448.998-1 .998 0 0-.001 0-.002 0l-6.801-.012-4.82 1.929c-.119.048-.245.071-.371.071z"/><path fill="#5d9cec" d="m29.005 1.445v7.01 13 4.01l15-.02 6 2v-2h3v-24z"/><path fill="#e6e9ed" d="m29.005 8.455v13h-.01l-6.99-.01-5 2v-2h-3v-12.99h14.99z"/><path fill="#e6e9ed" d="m58.995 63.445v.109h-10v-.109l2-7h3c2.77 0 5 2.24 5 5z"/><path fill="#ccd1d9" d="m53.995 56.445h-3c2.769.002 4.997 2.24 4.997 5v2 .109h3.003v-.109-2c0-2.759-2.23-5-5-5z"/><path fill="#e6e9ed" d="m55.995 40.484h-17.99v-8.039c0-1.1.9-2 2-2h14.01c1.101 0 2 .9 2 2v8.039z"/><path fill="#ccd1d9" d="m54.015 30.445h-3.003c1.101 0 2 .9 2 2v8.039h2.983.02v-8.039c0-1.099-.9-2-2-2z"/><path fill="#87bcf4" d="m46.995 53.445c1.439 0 2.8-.34 4-.941v3.941l-2 1-2-1-2 1-2-1v-3.941c1.2.601 2.56.941 4 .941z"/><path fill="#e6e9ed" d="m44.995 63.445v.109h-10v-.109-2c0-2.76 2.24-5 5-5h3z"/><path fill="#eac6bb" d="m55.995 40.484v3.961c0 3.529-2.04 6.59-5 8.059-1.2.602-2.561.941-4 .941-1.44 0-2.8-.34-4-.941-2.96-1.469-5-4.529-5-8.059v-.041-3.92h.01z"/><path fill="#d3b1a9" d="m52.992 40.484v3.961c0 3.529-2.04 6.59-5 8.059-.772.387-1.615.65-2.499.801.49.082.988.141 1.502.141 1.439 0 2.8-.34 4-.941 2.96-1.469 5-4.529 5-8.059v-3.961h-3.003z"/><path fill="#5d9cec" d="m44.995 63.445-2-7 2 1 2-1 2 1 2-1-2 7v.11h-4z"/><path fill="#eac6bb" d="m26.005 41.584v2.971c0 3.529-2.04 6.59-5 8.061-1.2.6-2.57.939-4 .939s-2.8-.34-4-.939c-2.95-1.461-4.98-4.5-5-8.01v-.051-2.971l3-2.029s3.01 1 6.5 1 5.5-1 5.5-1z"/><path fill="#d3b1a9" d="m23.005 39.555-.003.002v4.998c0 3.529-2.04 6.59-5 8.061-.771.385-1.616.648-2.499.799.491.084.99.141 1.502.141 1.43 0 2.8-.34 4-.939 2.96-1.471 5-4.531 5-8.061v-2.971z"/><path fill="#5d9cec" d="m29.005 61.555v2h-24v-2c0-2.76 2.24-5 5-5h3l2 1 2-1 2 1 2-1h3c2.76 0 5 2.24 5 5z"/><path fill="#4a89dc" d="m24.005 56.555h-3c2.758.002 4.997 2.24 4.997 5v2h3.003v-2c0-2.76-2.24-5-5-5z"/><path fill="#87bcf4" d="m17.005 53.555c1.43 0 2.8-.34 4-.939v3.939l-2 1-2-1-2 1-2-1v-3.939c1.2.599 2.57.939 4 .939z"/><path fill="#965353" d="m26.005 38.555v3.029l-3-2.029s-2.01 1-5.5 1-6.5-1-6.5-1l-3 2.029v-3.029c0-4.42 3.58-8 8-8h6v4c2.21 0 4 1.791 4 4z"/><path fill="#844747" d="m22.005 37.555c.552 0 1 .449 1 1v1l3 2.029v-3.029c0-2.209-1.79-4-4-4v-4h-3v4c0 1.658 1.343 3 3 3z"/><path fill="#5d9cec" d="m50.001 28.45c-.106 0-.213-.017-.316-.052l-5.847-1.948-14.837.012h-.001c-.265 0-.52-.105-.707-.293s-.293-.441-.293-.707v-24.017c0-.553.447-1 1-1h24.001c.553 0 1 .447 1 1v24.005c0 .553-.447 1-1 1h-1.999l-.001 1.001c0 .321-.155.623-.416.811-.172.124-.377.188-.584.188zm-6.001-4c.107 0 .214.018.316.052l4.686 1.562.001-.614c.001-.552.448-.999 1-.999h1.998v-22.006h-22.001v22.016z"/><path style="fill:none;stroke:#000;stroke-width:2;stroke-linecap:round;stroke-linejoin:round;stroke-miterlimit:10"/><path style="fill:none;stroke:#000;stroke-width:2;stroke-linecap:round;stroke-linejoin:round;stroke-miterlimit:10"/><path fill="#ed5565" d="m46.994 38.459c-.553 0-1-.447-1-1v-4.012c0-.553.447-1 1-1s1 .447 1 1v4.012c0 .553-.447 1-1 1z"/><path fill="#ed5565" d="m48.995 36.466h-4.002c-.553 0-1-.447-1-1s.447-1 1-1h4.002c.553 0 1 .447 1 1s-.447 1-1 1z"/><path fill="#fff" d="m47.01 14.45-1 6.99h-1.51c-1.101 0-2-.891-2-2v-2.5c0-.82-.67-1.49-1.5-1.49s-1.5.67-1.5 1.49v2.5c0 1.109-.891 2-2 2h-1.5l-1-6.99c-1.21-.92-2-2.37-2-4 0-2.77 2.239-5 5-5 1.14 0 2.17.39 3.01 1.02.83-.63 1.87-1.02 3-1.02 2.76 0 5 2.23 5 5 0 1.63-.79 3.08-2 4z"/></svg>