<svg xmlns="http://www.w3.org/2000/svg" xmlns:xlink="http://www.w3.org/1999/xlink" id="Capa_1" x="0" y="0" version="1.1" viewBox="0 0 512.001 512.001" xml:space="preserve" style="enable-background:new 0 0 512.001 512.001"><path style="fill:#48c1e1" d="M238.627,5.151c0-2.833-2.319-5.151-5.154-5.151H65.482c-2.834,0-5.154,2.318-5.154,5.151v65.741	c0,2.833,2.319,5.15,5.154,5.15h60.275c2.835,0,6.796,1.637,8.804,3.637l12.389,12.347c2.008,2,5.292,2,7.3,0l12.389-12.347	c2.007-2,5.969-3.637,8.804-3.637h58.029c2.835,0,5.154-2.317,5.154-5.15L238.627,5.151L238.627,5.151z"/><g style="opacity:.1"><path d="M81.826,70.893V5.151C81.826,2.318,84.145,0,86.98,0H65.482c-2.834,0-5.154,2.318-5.154,5.151v65.741 c0,2.833,2.319,5.15,5.154,5.15H86.98C84.145,76.043,81.826,73.726,81.826,70.893z"/></g><path style="fill:#c5ccd3" d="M283.713,478.999v-45.224c-10.879-5.087-20.38-12.889-28.415-23.38	c-6.204-8.099-10.422-16.361-13.109-22.671c0.615,2.996,0.938,6.097,0.938,9.271v61.433	C255.216,468.009,268.836,474.899,283.713,478.999z"/><path style="fill:#e6e9ed" d="M38.114,512c-2.978,0-5.393-2.407-5.393-5.374v-109.63c0-25.485,20.806-46.217,46.382-46.217h118.652	c25.575,0,46.381,20.731,46.381,46.217v109.63c0,2.967-2.413,5.374-5.393,5.374H38.114z"/><path style="opacity:.1;enable-background:new" d="M81.407,354.826l2.174-4.047h-4.478c-25.576,0-46.382,20.731-46.382,46.217	v109.63c0,2.967,2.414,5.374,5.393,5.374h21.247c-2.978,0-5.393-2.407-5.393-5.374v-109.63	C53.968,378.233,65.252,362.06,81.407,354.826z"/><g><path style="fill:#9ea7af" d="M205.508,373.54v-20.522c0-4.143-3.358-7.5-7.5-7.5c-2.436,0-4.594,1.166-5.964,2.965 L205.508,373.54z"/><path style="fill:#9ea7af" d="M204.382,379.94l-13.874,6.445v11.972l6.224,3.212c0.941,0.485,1.583,1.269,1.808,2.205 c0.225,0.936,0.01,1.922-0.605,2.779l-7.427,10.333v20.35c2.384-0.683,4.898-1.056,7.5-1.056s5.116,0.373,7.5,1.056v-58.097 C205.188,379.461,204.815,379.738,204.382,379.94z"/></g><g><path style="fill:#c5ccd3" d="M217.75,500.873h-6.992c-4.142,0-7.5-3.357-7.5-7.5c0-3.972,3.087-7.222,6.992-7.483v-23.663 c0-6.713-5.492-12.174-12.243-12.174c-6.751,0-12.244,5.461-12.244,12.174v23.663c3.906,0.261,6.993,3.512,6.993,7.483 c0,4.143-3.358,7.5-7.5,7.5h-6.993c-4.142,0-7.5-3.357-7.5-7.5v-31.146c0-14.983,12.222-27.174,27.244-27.174 c15.021,0,27.243,12.19,27.243,27.174v31.146C225.25,497.516,221.893,500.873,217.75,500.873z"/><ellipse style="fill:#c5ccd3" cx="83.231" cy="478.37" rx="15.04" ry="14.988"/></g><path style="fill:#9ea7af" d="M90.733,457.171v-34.189l-11.809-16.431c-0.616-0.856-0.831-1.843-0.606-2.777	c0.225-0.938,0.867-1.721,1.809-2.206l10.606-5.473v-7.675l-15-6.968v75.719c-8.753,3.09-15.042,11.426-15.042,21.203	c0,12.4,10.112,22.488,22.542,22.488s22.543-10.088,22.543-22.488C105.776,468.598,99.486,460.262,90.733,457.171z M83.233,485.863	c-4.159,0-7.542-3.359-7.542-7.488s3.383-7.488,7.542-7.488s7.543,3.359,7.543,7.488S87.392,485.863,83.233,485.863z"/><g><path style="fill:#fff" d="M188.998,340.7c-1.291-2.401-4.532-4.361-7.291-4.453c-7.285,4.098-15.266,7.075-23.717,8.712 v116.95c0.949-0.115,1.872-0.673,2.592-1.675l38.165-53.099c1.628-2.269,0.929-5.174-1.557-6.456l-12.099-6.243 c-2.486-1.282-2.444-3.296,0.093-4.476l19.618-9.114c2.538-1.178,3.532-4.153,2.212-6.613L188.998,340.7z"/><path style="fill:#fff" d="M104.03,336.229h-8.678c-2.798,0-6.171,2.012-7.491,4.471l-18.018,33.533 c-1.322,2.46-0.327,5.436,2.21,6.613l19.619,9.114c2.538,1.18,2.58,3.193,0.094,4.476l-12.099,6.243 c-2.487,1.282-3.187,4.188-1.556,6.456l38.162,53.099c0.722,1.002,1.646,1.56,2.593,1.675V342.7 C113.672,341.047,108.711,338.864,104.03,336.229z"/></g><rect style="fill:#046699" width="40.44" height="162.3" x="118.211" y="349.7"/><g><path style="fill:#ffb98a" d="M142.884,346.422c-8.608,0-16.896-1.396-24.672-3.945v26.209h40.435v-23.845 C153.548,345.873,148.279,346.422,142.884,346.422z"/><path style="fill:#ffb98a" d="M62.894,265.734v-39.186H50.22c-7.444,0-13.479,6.014-13.479,13.43v29.1 c0,7.417,6.035,13.431,13.479,13.431h14.424C63.504,277.095,62.894,271.486,62.894,265.734z"/><path style="fill:#ffb98a" d="M235.547,226.549h-12.675v39.186c0,5.752-0.611,11.36-1.751,16.774h14.425 c7.443,0,13.478-6.014,13.478-13.431v-29.1C249.025,232.563,242.99,226.549,235.547,226.549z"/></g><path style="fill:#c6a07d" d="M216.047,114.196h-71.733c-11.811,0-22.184,6.32-27.977,15.781H94.754	c-18.145,0-32.861,14.839-32.861,33.143v59.974h1v-5.982c0-20.684,7.824-36.111,23.255-45.851	c13.359-8.432,32.448-12.707,56.735-12.707c24.286,0,43.374,4.275,56.733,12.707c15.431,9.739,23.255,25.166,23.255,45.851v5.982h1	V122.087C223.873,117.73,220.37,114.196,216.047,114.196z"/><path style="opacity:.1;enable-background:new" d="M62.894,217.111c0-19.139,6.712-33.766,19.936-43.561v-10.43	c0-18.304,14.716-33.143,32.861-33.143H94.754c-18.145,0-32.861,14.839-32.861,33.143v59.974h1v-5.983H62.894z"/><path style="opacity:.1;enable-background:new" d="M132.308,158.855v-11.516c0-18.275,14.743-33.143,32.861-33.143h-20.854	c-18.118,0-32.861,14.867-32.861,33.143v14.193C117.81,160.173,124.769,159.28,132.308,158.855z"/><path style="fill:#ffd5b3" d="M223.873,265.734c0,45.115-36.261,81.688-80.988,81.688l0,0c-44.73,0-80.991-36.572-80.991-81.688	v-48.623c0-45.112,36.26-59.558,80.991-59.558l0,0c44.727,0,80.988,14.445,80.988,59.558L223.873,265.734L223.873,265.734z"/><g style="opacity:.1"><path d="M82.83,265.734v-48.623c0-41.532,30.741-57.059,70.522-59.266c-3.429-0.189-6.918-0.292-10.468-0.292 c-44.73,0-80.991,14.445-80.991,59.558v48.623c0,45.115,36.26,81.688,80.991,81.688c3.55,0,7.039-0.256,10.468-0.702 C113.571,341.537,82.83,307.27,82.83,265.734z"/></g><g><path style="fill:#775436" d="M144.274,278.036h-5.317c-4.142,0-7.5-3.357-7.5-7.5s3.358-7.5,7.5-7.5h2.971v-14.411 c0-4.143,3.358-7.5,7.5-7.5s7.5,3.357,7.5,7.5v16.761C156.928,272.361,151.252,278.036,144.274,278.036z"/><path style="fill:#775436" d="M187.25,261.275c-4.142,0-7.5-3.357-7.5-7.5v-15.04c0-4.143,3.358-7.5,7.5-7.5s7.5,3.357,7.5,7.5 v15.04C194.75,257.918,191.392,261.275,187.25,261.275z"/><path style="fill:#775436" d="M101.137,261.275c-4.142,0-7.5-3.357-7.5-7.5v-15.04c0-4.143,3.358-7.5,7.5-7.5s7.5,3.357,7.5,7.5 v15.04C108.637,257.918,105.279,261.275,101.137,261.275z"/></g><path style="fill:#fb8276" d="M143.364,327.264c-15.527,0-28.16-12.588-28.16-28.061c0-2.422,1.97-4.383,4.401-4.383h47.52	c2.43,0,4.4,1.961,4.4,4.383C171.524,314.676,158.893,327.264,143.364,327.264z"/><path style="fill:#a2dff9" d="M436.143,361.681h-33.484c-8.535,3.496-17.604,5.338-26.887,5.338s-18.353-1.842-26.888-5.338	h-23.095c-23.788,0-43.139,19.331-43.139,43.092V506.99c0,2.768,2.244,5.011,5.016,5.011h186.6c2.772,0,5.015-2.243,5.015-5.011	V404.772C479.28,381.012,459.929,361.681,436.143,361.681z"/><path style="opacity:.1;enable-background:new" d="M349.245,361.834c-0.121-0.049-0.24-0.104-0.361-0.153h-23.095	c-23.788,0-43.139,19.331-43.139,43.092V506.99c0,2.768,2.244,5.011,5.016,5.011h26.952c-2.772,0-5.016-2.243-5.016-5.011V404.772	C309.602,382.189,327.087,363.619,349.245,361.834z"/><g><path style="fill:#ffb98a" d="M298.058,284.002v-15.805h-2.401c-11.486,0-20.798,9.305-20.798,20.779 c0,11.478,9.311,20.778,20.798,20.778h6.526C299.497,301.417,298.058,292.709,298.058,284.002z"/><path style="fill:#ffb98a" d="M455.878,268.197h-2.395v15.805c0,8.707-1.439,17.415-4.125,25.753h6.52 c11.49,0,20.806-9.301,20.806-20.778C476.685,277.502,467.368,268.197,455.878,268.197z"/><path style="fill:#ffb98a" d="M380.445,408.164l23.663-46.483h-1.45c-8.535,3.496-17.604,5.338-26.887,5.338 s-18.353-1.842-26.888-5.338h-1.448l23.662,46.483C373.669,413.214,377.875,413.214,380.445,408.164z"/></g><path style="fill:#89c947" d="M355.153,149.645c6.604-1.858,13.509-2.852,20.618-2.852s14.013,0.993,20.617,2.852	c6.729-6.496,11.002-16.098,11.002-26.803c0-2.202-1.787-3.987-3.989-3.987h-55.26c-2.205,0-3.99,1.785-3.99,3.987	C344.151,133.548,348.423,143.15,355.153,149.645z"/><path style="opacity:.1;enable-background:new" d="M355.153,149.645c5.954-1.676,12.153-2.647,18.526-2.821	c-5.212-6.312-8.416-14.728-8.416-23.981c0-2.202,1.786-3.987,3.99-3.987h-21.112c-2.205,0-3.99,1.785-3.99,3.987	C344.151,133.548,348.423,143.15,355.153,149.645z"/><path style="fill:#ffd5b3" d="M297.058,263.317v20.685c0,44.231,35.24,84.017,78.713,84.017c43.471,0,78.712-39.785,78.712-84.017	v-20.685H297.058z"/><g style="opacity:.1"><path d="M318.132,284.002v-20.685h-21.074v20.685c0,44.231,35.24,84.017,78.713,84.017c3.575,0,7.088-0.294,10.537-0.813 C347.82,361.419,318.132,324.596,318.132,284.002z"/></g><g><path style="fill:#775436" d="M380.44,320.043h-4.725c-6.741,0-12.225-5.675-12.225-12.65v-14.666c0-4.143,3.358-7.5,7.5-7.5 s7.5,3.357,7.5,7.5v12.316h1.949c4.142,0,7.5,3.357,7.5,7.5C387.94,316.685,384.582,320.043,380.44,320.043z"/><path style="fill:#775436" d="M335.512,305.677c-4.142,0-7.5-3.357-7.5-7.5v-11.19c0-4.142,3.358-7.5,7.5-7.5s7.5,3.358,7.5,7.5 v11.19C343.012,302.319,339.654,305.677,335.512,305.677z"/><path style="fill:#775436" d="M409.643,305.677c-4.142,0-7.5-3.357-7.5-7.5v-11.19c0-4.142,3.358-7.5,7.5-7.5s7.5,3.358,7.5,7.5 v11.19C417.143,302.319,413.785,305.677,409.643,305.677z"/><path style="fill:#775436" d="M373.436,350.342c-10.213,0-20.422-3.882-28.197-11.649c-2.93-2.928-2.933-7.676-0.005-10.607 c2.927-2.93,7.676-2.933,10.606-0.005c9.702,9.692,25.489,9.693,35.192-0.001c2.93-2.926,7.679-2.924,10.606,0.006 c2.927,2.931,2.925,7.68-0.006,10.607C393.861,346.458,383.647,350.342,373.436,350.342z"/></g><path style="fill:#368c0e" d="M294.566,230.683h162.409c1.283,0,2.523,0.176,3.717,0.474c-4.938-48.348-41.07-85.875-84.921-85.875	c-43.852,0-79.985,37.527-84.922,85.875C292.043,230.858,293.284,230.683,294.566,230.683z"/><path style="opacity:.1;enable-background:new" d="M294.566,230.683h17.846c4.7-44.107,35.36-79.113,74.108-84.639	c-3.521-0.502-7.108-0.763-10.749-0.763c-43.852,0-79.985,37.527-84.922,85.875C292.043,230.858,293.284,230.683,294.566,230.683z"/><path style="fill:#89c947" d="M472.437,249.411c0,8.499-6.958,15.453-15.462,15.453H294.566c-8.504,0-15.461-6.954-15.461-15.453	V245c0-8.499,6.957-15.453,15.461-15.453h162.409c8.504,0,15.462,6.954,15.462,15.453V249.411z"/><g style="opacity:.1"><path d="M300.325,249.411V245c0-8.499,6.957-15.453,15.461-15.453h-21.22c-8.504,0-15.461,6.954-15.461,15.453v4.411 c0,8.499,6.957,15.453,15.461,15.453h21.22C307.282,264.864,300.325,257.91,300.325,249.411z"/></g><path style="fill:#fb8276" d="M418.498,479.486c-1.616,0-2.931-1.314-2.931-2.926v-17.897h-17.93c-1.618,0-2.931-1.313-2.931-2.927	v-15.145c0-1.614,1.313-2.925,2.931-2.925h17.93v-17.9c0-1.612,1.315-2.925,2.931-2.925h15.174c1.616,0,2.929,1.313,2.929,2.925	v17.9h17.932c1.617,0,2.929,1.311,2.929,2.925v15.145c0,1.613-1.313,2.927-2.929,2.927h-17.932v17.897	c0,1.611-1.314,2.926-2.929,2.926H418.498z"/><g><path style="fill:#a2dff9" d="M104.55,33.772H89.948c-4.142,0-7.5-3.357-7.5-7.5s3.358-7.5,7.5-7.5h14.602 c4.142,0,7.5,3.357,7.5,7.5C112.05,30.415,108.692,33.772,104.55,33.772z"/><path style="fill:#a2dff9" d="M206.76,33.772h-80.524c-4.142,0-7.5-3.357-7.5-7.5s3.358-7.5,7.5-7.5h80.524 c4.142,0,7.5,3.357,7.5,7.5S210.902,33.772,206.76,33.772z"/><path style="fill:#a2dff9" d="M170.472,57.275H89.948c-4.142,0-7.5-3.357-7.5-7.5s3.358-7.5,7.5-7.5h80.524 c4.142,0,7.5,3.357,7.5,7.5S174.614,57.275,170.472,57.275z"/></g><path style="fill:#fff" d="M104.03,336.229h-8.678c-2.798,0-6.171,2.012-7.491,4.471l-18.018,33.533	c-1.322,2.46-0.327,5.436,2.21,6.613l19.619,9.114c2.538,1.18,2.58,3.193,0.094,4.476l-12.099,6.243	c-2.487,1.282-3.187,4.188-1.556,6.456l38.162,53.099c0.722,1.002,1.646,1.56,2.593,1.675V342.7	C113.672,341.047,108.711,338.864,104.03,336.229z"/></svg>